<?xml version="1.0" encoding="utf-8"?>
<!-- Generator: Adobe Illustrator 17.0.0, SVG Export Plug-In . SVG Version: 6.00 Build 0)  -->
<!DOCTYPE svg PUBLIC "-//W3C//DTD SVG 1.1//EN" "http://www.w3.org/Graphics/SVG/1.1/DTD/svg11.dtd">
<svg version="1.1" id="Layer_1" xmlns="http://www.w3.org/2000/svg" xmlns:xlink="http://www.w3.org/1999/xlink" x="0px" y="0px"
	 width="250.25px" height="97px" viewBox="0 0 250.25 97" enable-background="new 0 0 250.25 97" xml:space="preserve">
<g>
	<rect y="0.25" fill="#F05656" width="11" height="96"/>
	<g>
		<path fill="#3B5369" d="M48.476,29.523c0-0.75,0.4-1.25,1.2-1.25h2.5c0.75,0,1.15,0.55,1.15,1.25v2.7c0,0.75-0.45,1.15-1.15,1.15
			h-2.5c-0.7,0-1.2-0.45-1.2-1.15V29.523z M48.976,36.523h3.7v26.552h-3.7V36.523z"/>
		<path fill="#3B5369" d="M58.825,36.523h2.601l1.1,3.101c3.05-1.75,5.75-3.55,9.801-3.55c5.3,0,8.201,4.1,8.201,8.5v18.501h-3.7
			V44.574c0-3.3-1.95-4.8-4.5-4.8c-4,0-5.95,1-9.801,2.85v20.451h-3.7V36.523z"/>
		<path fill="#3B5369" d="M83.525,37.374l4.95-0.9l0.9-7.4h2.8v7.4h7.75v3.7h-7.75v13.4c0,4.351,1.15,5.351,2.851,5.751
			c0,0,4.1,1.05,4.45,1.05v2.65h-4.4c-3.85,0-6.601-2.4-6.601-9.451v-13.4h-4.95V37.374z"/>
		<path fill="#3B5369" d="M115.525,36.324c6.25,0,10.15,0.6,10.15,9.4c0,3.85-2.05,6.101-6.851,6.101h-11.201
			c0,6.25,1.15,7.8,5.05,7.8c4.601,0,8.751,0.05,12.501-0.5v2.8c-4.05,1.15-8.351,1.4-12.501,1.4c-6.75,0-8.75-3.25-8.75-13.65
			C103.924,37.824,107.325,36.324,115.525,36.324z M118.825,48.175c2.2,0,3.15-0.801,3.15-2.45c0-5.251-1-5.7-6.4-5.7
			c-5.65,0-7.951,0.05-7.951,8.15H118.825z"/>
		<path fill="#3B5369" d="M130.674,23.923h3.7v29.702c0,4.35,1.15,5.35,2.851,5.75c0,0,4.1,1.05,4.45,1.05v2.65h-4.4
			c-3.85,0-6.601-2.4-6.601-9.45V23.923z"/>
		<path fill="#3B5369" d="M145.174,23.923h3.7v29.702c0,4.35,1.15,5.35,2.851,5.75c0,0,4.1,1.05,4.45,1.05v2.65h-4.4
			c-3.85,0-6.601-2.4-6.601-9.45V23.923z"/>
		<path fill="#3B5369" d="M168.775,36.324c6.25,0,10.15,0.6,10.15,9.4c0,3.85-2.05,6.101-6.851,6.101h-11.201
			c0,6.25,1.15,7.8,5.05,7.8c4.601,0,8.75,0.05,12.501-0.5v2.8c-4.05,1.15-8.351,1.4-12.501,1.4c-6.75,0-8.75-3.25-8.75-13.65
			C157.174,37.824,160.574,36.324,168.775,36.324z M172.075,48.175c2.2,0,3.15-0.801,3.15-2.45c0-5.251-1-5.7-6.4-5.7
			c-5.65,0-7.951,0.05-7.951,8.15H172.075z"/>
		<path fill="#3B5369" d="M192.174,36.273c2.601,0,7.901,0.65,11.401,1.301v2.7c0,0-6.951-0.301-11.401-0.301
			c-3,0-5.05,0.551-5.05,10.001c0,7.65,1.45,9.65,5.05,9.65c4.601,0,11.751-0.55,11.751-0.55v2.8c-4.05,1.15-7.601,1.4-11.751,1.45
			c-4.95,0-8.75-1.9-8.75-13.551C183.423,38.174,187.074,36.273,192.174,36.273z"/>
		<path fill="#3B5369" d="M206.924,37.374l4.95-0.9l0.9-7.4h2.8v7.4h7.751v3.7h-7.751v13.4c0,4.351,1.15,5.351,2.851,5.751
			c0,0,4.1,1.05,4.45,1.05v2.65h-4.4c-3.851,0-6.601-2.4-6.601-9.451v-13.4h-4.95V37.374z"/>
		<path fill="#3B5369" d="M226.823,53.725c0-4,2.5-6.65,6.65-6.65c0,0,11.101,0.05,11.101,0c0,0,0.05-3.3,0-3.35
			c0-3.051-1.6-4.101-4.1-4.101c-3.601,0-7.951,0.25-12.801,0.6v-2.7c3.55-1,8-1.449,12.95-1.5c4.15-0.05,7.65,2.2,7.65,7.701
			v19.351h-2.75l-0.95-3.2c-0.1,0-6.55,3.5-11.101,3.5c-3.65,0-6.65-2.35-6.65-6.601V53.725z M233.474,59.675
			c4,0,11.101-2.55,11.101-2.55v-7.15l-11.101,0.8c-2.15,0.2-2.95,1.65-2.95,3.25v2.5C230.523,58.925,231.773,59.675,233.474,59.675
			z"/>
	</g>
</g>
</svg>
